<?xml version="1.0" standalone="no"?>
<!DOCTYPE svg PUBLIC "-//W3C//DTD SVG 20010904//EN"
 "http://www.w3.org/TR/2001/REC-SVG-20010904/DTD/svg10.dtd">
<svg version="1.0" xmlns="http://www.w3.org/2000/svg"
 width="42.000000pt" height="34.000000pt" viewBox="0 0 42.000000 34.000000"
 preserveAspectRatio="xMidYMid meet">

<g transform="translate(0.000000,34.000000) scale(0.100000,-0.100000)"
fill="#000000" stroke="none">
<path d="M187 270 c-14 -11 -34 -20 -46 -20 -31 0 -57 -45 -43 -75 7 -14 16
-25 22 -25 5 0 10 -22 10 -50 l0 -50 90 0 90 0 0 41 c0 26 7 50 20 66 11 14
20 33 20 43 0 21 -31 50 -54 50 -10 0 -29 9 -43 20 -14 11 -29 20 -33 20 -4 0
-19 -9 -33 -20z m61 -12 c5 -7 12 -24 15 -38 4 -25 4 -25 12 -2 9 27 41 29 55
3 12 -24 4 -48 -21 -62 -11 -5 -19 -20 -19 -34 0 -24 -2 -25 -70 -25 -65 0
-70 2 -70 21 0 12 -11 32 -24 44 -17 16 -23 30 -19 44 6 24 49 39 66 22 16
-16 32 -14 18 2 -8 10 -7 17 1 25 16 16 43 15 56 0z m42 -183 c0 -12 -14 -15
-70 -15 -56 0 -70 3 -70 15 0 12 14 15 70 15 56 0 70 -3 70 -15z"/>
<path d="M180 145 c0 -8 5 -15 10 -15 6 0 10 7 10 15 0 8 -4 15 -10 15 -5 0
-10 -7 -10 -15z"/>
<path d="M240 145 c0 -8 5 -15 10 -15 6 0 10 7 10 15 0 8 -4 15 -10 15 -5 0
-10 -7 -10 -15z"/>
</g>
</svg>
